<?xml version="1.0" encoding="utf-8"?>
<!-- Generator: Adobe Illustrator 27.2.0, SVG Export Plug-In . SVG Version: 6.00 Build 0)  -->
<svg version="1.1" xmlns="http://www.w3.org/2000/svg" xmlns:xlink="http://www.w3.org/1999/xlink" x="0px" y="0px"
	 viewBox="0 0 478.6 106.2" style="enable-background:new 0 0 478.6 106.2;" xml:space="preserve">
<style type="text/css">
	.st0{display:none;}
	.st1{display:inline;}
	.st2{fill:none;stroke:#283F95;stroke-width:7;stroke-miterlimit:10;}
	.st3{fill:none;stroke:#283F95;stroke-width:6;stroke-miterlimit:10;}
	.st4{fill:#283F95;stroke:#283F95;stroke-width:6;stroke-miterlimit:10;}
	.st5{fill:#283F95;stroke:#283F95;stroke-width:2;stroke-miterlimit:10;}
</style>
<g id="Layer_2" class="st0">
	<rect x="-6" y="-8.7" class="st1" width="493" height="122"/>
</g>
<g id="Layer_1">
	<path class="st2" d="M7,61.2c-0.3-1.4-0.4-2.8-0.5-4.2"/>
	<path class="st3" d="M9.9,70.1"/>
	<path class="st3" d="M10.7,72.3"/>
	<path class="st3" d="M12.5,76.1"/>
	<path class="st3" d="M12.8,76.4"/>
	<path class="st2" d="M7.7,45.1C12.1,17.8,37.7-0.7,65,3.6s45.8,30,41.5,57.3c-4.4,27.3-30,45.8-57.3,41.5
		C34.7,100.1,22,91.5,14.4,79"/>
	<polygon class="st4" points="7.7,47.2 5.7,44 10.3,44.8 	"/>
	<path class="st5" d="M139.5,79.3h-6.5V15.5h6.5V79.3z"/>
	<path class="st5" d="M161.6,37.1c0.1,1.1,0.2,2.4,0.3,3.8s0.1,2.5,0.1,3.4h0.2c1.3-2.6,3.3-4.7,5.9-6c2.6-1.5,5.5-2.3,8.5-2.3
		c5.3,0,9.3,1.6,12,4.8c2.7,3.2,4,7.4,4,12.6v25.9h-6.1V56c0-2-0.2-4-0.5-6c-0.3-1.7-0.9-3.2-1.8-4.7c-0.9-1.3-2.1-2.3-3.5-3
		c-1.7-0.8-3.6-1.1-5.5-1.1c-1.6,0-3.2,0.3-4.7,1c-1.6,0.7-3,1.7-4.1,3c-1.3,1.5-2.3,3.2-2.9,5.1c-0.8,2.4-1.1,4.9-1.1,7.4v21.6
		h-6.1V46.4c0-1.1,0-2.6-0.1-4.4s-0.2-3.4-0.3-4.9H161.6z"/>
	<path class="st5" d="M226.2,42.3h-9.9v37h-6.1v-37h-8.8v-5.2h8.8V25.6c0-4.8,1.2-8.6,3.5-11.3s5.9-4.1,10.8-4.1
		c0.8,0,1.6,0,2.5,0.1c0.9,0.1,1.7,0.3,2.5,0.5l-1.1,5.4c-0.7-0.2-1.3-0.3-2-0.5c-0.7-0.1-1.5-0.2-2.2-0.2c-1.4-0.1-2.7,0.2-4,0.8
		c-1,0.5-1.9,1.3-2.4,2.3c-0.6,1.1-1,2.3-1.2,3.5c-0.2,1.4-0.3,2.8-0.3,4.2v10.8h9.9V42.3z M242.3,21c0,1.2-0.5,2.3-1.4,3.1
		c-1.6,1.6-4.3,1.6-5.9,0c-1.7-1.6-1.8-4.3-0.2-6c0.1-0.1,0.1-0.1,0.2-0.2c1.7-1.6,4.3-1.6,5.9,0C241.8,18.6,242.3,19.8,242.3,21
		L242.3,21z M240.9,79.3h-6.1V37.1h6.1V79.3z"/>
	<path class="st5" d="M262.8,37.1c0.1,1.1,0.2,2.4,0.3,3.8c0.1,1.4,0.1,2.5,0.1,3.4h0.2c1.3-2.6,3.3-4.7,5.9-6
		c2.6-1.5,5.5-2.3,8.5-2.3c5.3,0,9.3,1.6,12,4.8c2.7,3.2,4,7.4,4,12.6v25.9h-6.1V56c0-2-0.2-4-0.5-6c-0.3-1.7-0.9-3.2-1.8-4.7
		c-0.9-1.3-2.1-2.3-3.5-3c-1.7-0.8-3.6-1.1-5.5-1.1c-1.6,0-3.2,0.3-4.7,1c-1.6,0.7-3,1.7-4.1,3c-1.3,1.5-2.3,3.2-2.9,5.1
		c-0.8,2.4-1.1,4.9-1.1,7.3v21.7h-6.1V46.4c0-1.1,0-2.6-0.1-4.4s-0.1-3.4-0.3-4.9H262.8z"/>
	<path class="st5" d="M324.1,72.7h0.2l13-35.5h6.7l-21,53c-1,2.9-2.7,5.5-4.8,7.8c-2,1.9-4.8,2.9-8.4,2.9c-1.8,0-3.7-0.2-5.5-0.5
		l0.6-5.6c1.5,0.5,3,0.7,4.5,0.7c1.9,0.1,3.7-0.6,5-1.9c1.4-1.6,2.5-3.5,3.1-5.5l3.4-8.8l-18-42h6.8L324.1,72.7z"/>
	<path class="st5" d="M416.9,47.4c0.1,4.6-0.8,9.1-2.5,13.4c-3.2,8-9.5,14.3-17.5,17.6c-8.5,3.4-17.9,3.4-26.4,0
		c-8-3.2-14.3-9.6-17.5-17.6c-1.7-4.3-2.6-8.8-2.5-13.4c-0.1-4.6,0.8-9.1,2.5-13.4c3.2-8,9.5-14.3,17.5-17.5
		c8.5-3.4,17.9-3.4,26.4,0c8,3.2,14.3,9.6,17.5,17.5C416.1,38.3,417,42.8,416.9,47.4z M410.1,47.4c0-3.6-0.6-7.2-1.8-10.6
		c-1.1-3.3-2.9-6.3-5.2-8.8c-2.3-2.6-5.2-4.6-8.3-6.1c-7-3-15-3-22,0c-3.2,1.4-6,3.5-8.3,6.1c-2.3,2.6-4.1,5.6-5.2,8.8
		c-2.4,6.9-2.4,14.3,0,21.2c1.1,3.3,2.9,6.2,5.2,8.8c2.3,2.5,5.2,4.6,8.3,6c7,3,15,3,22,0c3.2-1.4,6-3.5,8.3-6
		c2.3-2.6,4.1-5.6,5.2-8.8C409.5,54.6,410.1,51,410.1,47.4L410.1,47.4z"/>
	<path class="st5" d="M435.5,37.1c0.1,1.1,0.2,2.4,0.3,3.8c0.1,1.4,0.1,2.5,0.1,3.4h0.2c1.3-2.6,3.3-4.7,5.9-6
		c2.6-1.5,5.5-2.3,8.5-2.3c5.3,0,9.3,1.6,12,4.8c2.7,3.2,4,7.4,4,12.6v25.9h-6.1V56c0-2-0.2-4-0.5-6c-0.3-1.7-0.9-3.2-1.8-4.7
		c-0.9-1.3-2.1-2.3-3.5-3c-1.7-0.8-3.6-1.1-5.5-1.1c-1.6,0-3.2,0.3-4.7,1c-1.6,0.7-3,1.7-4.1,3c-1.3,1.5-2.3,3.2-2.9,5.1
		c-0.8,2.4-1.1,4.9-1.1,7.4v21.6h-6.1V46.4c0-1.1,0-2.6-0.1-4.4s-0.1-3.4-0.3-4.9H435.5z"/>
	<path class="st2" d="M69.2,21.5c-24,31.2,21,29.8-7.4,64.7"/>
	<path class="st2" d="M50.8,20.5c-24,31.2,21,29.8-7.4,64.7"/>
	<path class="st2" d="M9,69c-0.5-1.3-0.9-2.7-1.2-4"/>
	<path class="st2" d="M12.3,75.9c-0.7-1.2-1.3-2.5-1.9-3.8"/>
</g>
</svg>
