<?xml version="1.0" encoding="UTF-8"?><svg id="Layer_1" xmlns="http://www.w3.org/2000/svg" viewBox="0 0 379.75 152.64"><defs><style>.cls-1,.cls-2{stroke-linecap:round;stroke-linejoin:round;}.cls-1,.cls-2,.cls-3{fill:none;}.cls-1,.cls-4{stroke:#2b3990;}.cls-2{stroke:#1c75bc;stroke-dasharray:0 0 2 2;}.cls-4{fill:#27aae1;stroke-width:.5px;}.cls-4,.cls-3{stroke-miterlimit:10;}.cls-3{stroke:#808285;stroke-width:.75px;}.cls-5{fill:#6d6e71;font-size:13px;letter-spacing:0em;}.cls-5,.cls-6{font-family:AvenirNext-Regular, 'Avenir Next';}.cls-6{fill:#2e3192;font-size:14px;letter-spacing:.01em;}.cls-7{fill:#808285;stroke-width:0px;}</style></defs><line class="cls-3" x1="5.95" y1="18.79" x2="370.29" y2="18.79"/><polygon class="cls-7" points="365.86 21.17 365.6 20.47 370.22 18.79 365.6 17.11 365.86 16.4 372.41 18.79 365.86 21.17"/><text class="cls-5" transform="translate(11.31 13.65)"><tspan x="0" y="0">time</tspan></text><circle class="cls-4" cx="27.61" cy="36.64" r="4.46"/><circle class="cls-4" cx="60.29" cy="36.64" r="4.46"/><circle class="cls-4" cx="97.24" cy="36.64" r="4.46"/><circle class="cls-4" cx="151.03" cy="36.64" r="4.46"/><circle class="cls-4" cx="164.98" cy="36.64" r="4.46"/><circle class="cls-4" cx="203.12" cy="36.64" r="4.46"/><circle class="cls-4" cx="244.79" cy="36.64" r="4.46"/><circle class="cls-4" cx="291.98" cy="36.64" r="4.46"/><circle class="cls-4" cx="324.65" cy="36.64" r="4.46"/><circle class="cls-4" cx="347.6" cy="36.64" r="4.46"/><line class="cls-1" x1="11.04" y1="49.63" x2="11.04" y2="62.83"/><polyline class="cls-1" points="11.04 62.83 64.93 62.83 87.05 62.91"/><line class="cls-1" x1="90.85" y1="51.66" x2="90.85" y2="80.37"/><line class="cls-1" x1="90.85" y1="80.37" x2="167.1" y2="80.37"/><line class="cls-2" x1="206.4" y1="80.37" x2="206.4" y2="51.09"/><line class="cls-1" x1="53.02" y1="68.71" x2="53.02" y2="125.41"/><line class="cls-1" x1="170.65" y1="51.84" x2="170.65" y2="97.91"/><line class="cls-1" x1="170.65" y1="97.91" x2="246.83" y2="97.91"/><line class="cls-2" x1="286.21" y1="97.91" x2="286.21" y2="51.22"/><text class="cls-6" transform="translate(23.32 144.04)"><tspan x="0" y="0">window 1</tspan></text><text class="cls-6" transform="translate(111.68 144.04)"><tspan x="0" y="0">window 2</tspan></text><text class="cls-6" transform="translate(282.39 144.04)"><tspan x="0" y="0">window 4</tspan></text><line class="cls-1" x1="250.45" y1="50.94" x2="250.45" y2="115.45"/><line class="cls-1" x1="250.45" y1="115.45" x2="366.01" y2="115.45"/><line class="cls-1" x1="366.01" y1="115.45" x2="366.01" y2="50.5"/><text class="cls-6" transform="translate(196.03 144.04)"><tspan x="0" y="0">window 3</tspan></text><line class="cls-2" x1="127.11" y1="51.53" x2="127.11" y2="63.11"/><line class="cls-2" x1="94.45" y1="62.95" x2="127.11" y2="62.95"/><line class="cls-2" x1="173.77" y1="80.47" x2="206.43" y2="80.47"/><line class="cls-2" x1="253.25" y1="97.94" x2="285.91" y2="97.94"/><line class="cls-1" x1="141.1" y1="89.35" x2="141.1" y2="125.41"/><line class="cls-1" x1="225.73" y1="105.92" x2="225.73" y2="125.41"/><line class="cls-1" x1="312.3" y1="121.47" x2="312.3" y2="125.9"/></svg>