<?xml version="1.0" encoding="UTF-8"?><svg id="Layer_1" xmlns="http://www.w3.org/2000/svg" viewBox="0 0 379.75 152.64"><defs><style>.cls-1{stroke-linecap:round;stroke-linejoin:round;}.cls-1,.cls-2{stroke:#2b3990;}.cls-1,.cls-3{fill:none;}.cls-2{fill:#27aae1;stroke-width:.5px;}.cls-2,.cls-3{stroke-miterlimit:10;}.cls-3{stroke:#808285;stroke-width:.75px;}.cls-4{fill:#6d6e71;font-size:13px;letter-spacing:0em;}.cls-4,.cls-5{font-family:AvenirNext-Regular, 'Avenir Next';}.cls-5{fill:#2e3192;font-size:14px;letter-spacing:.01em;}.cls-6{fill:#808285;stroke-width:0px;}</style></defs><line class="cls-3" x1="7.97" y1="18.86" x2="372.31" y2="18.86"/><polygon class="cls-6" points="367.88 21.24 367.62 20.54 372.24 18.86 367.62 17.18 367.88 16.47 374.43 18.86 367.88 21.24"/><text class="cls-4" transform="translate(12.74 14.08)"><tspan x="0" y="0">time</tspan></text><circle class="cls-2" cx="32.63" cy="39.71" r="4.46"/><circle class="cls-2" cx="65.3" cy="39.71" r="4.46"/><circle class="cls-2" cx="102.25" cy="39.71" r="4.46"/><circle class="cls-2" cx="156.04" cy="39.71" r="4.46"/><circle class="cls-2" cx="169.99" cy="39.71" r="4.46"/><circle class="cls-2" cx="208.14" cy="39.71" r="4.46"/><circle class="cls-2" cx="252.81" cy="39.71" r="4.46"/><circle class="cls-2" cx="293.99" cy="39.71" r="4.46"/><circle class="cls-2" cx="329.66" cy="39.71" r="4.46"/><circle class="cls-2" cx="352.61" cy="39.71" r="4.46"/><line class="cls-1" x1="16.06" y1="52.7" x2="16.06" y2="65.9"/><line class="cls-1" x1="16.06" y1="65.9" x2="131.62" y2="65.9"/><line class="cls-1" x1="131.62" y1="65.9" x2="131.62" y2="52.7"/><line class="cls-1" x1="131.73" y1="52.69" x2="131.73" y2="65.89"/><line class="cls-1" x1="131.73" y1="65.89" x2="247.28" y2="65.89"/><line class="cls-1" x1="247.28" y1="65.89" x2="247.28" y2="52.69"/><line class="cls-1" x1="247.39" y1="52.69" x2="247.39" y2="65.89"/><line class="cls-1" x1="247.39" y1="65.89" x2="362.95" y2="65.89"/><line class="cls-1" x1="362.95" y1="65.89" x2="362.95" y2="52.69"/><text class="cls-5" transform="translate(44.92 140.26)"><tspan x="0" y="0">window 1</tspan></text><text class="cls-5" transform="translate(163.2 140.68)"><tspan x="0" y="0">window 2</tspan></text><text class="cls-5" transform="translate(279.38 139.45)"><tspan x="0" y="0">window 3</tspan></text><line class="cls-1" x1="74.7" y1="70.32" x2="74.7" y2="121.31"/><line class="cls-1" x1="191.57" y1="70.91" x2="191.57" y2="121.91"/><line class="cls-1" x1="309.35" y1="70.01" x2="309.35" y2="121"/></svg>